<?xml version="1.0" standalone="yes"?>

<svg version="1.1" viewBox="0.0 0.0 185.0 100.0" fill="none" stroke="none" stroke-linecap="square" stroke-miterlimit="10" xmlns="http://www.w3.org/2000/svg" xmlns:xlink="http://www.w3.org/1999/xlink"><clipPath id="p.0"><path d="m0 0l185.0 0l0 100.0l-185.0 0l0 -100.0z" clip-rule="nonzero"></path></clipPath><g clip-path="url(#p.0)"><path fill="#000000" fill-opacity="0.0" d="m0 0l185.92389 0l0 100.0l-185.92389 0z" fill-rule="nonzero"></path><path fill="#3c78d8" d="m105.55315 76.2874l0 -52.5748l79.30708 26.287401z" fill-rule="nonzero"></path><path stroke="#000000" stroke-width="2.0" stroke-linejoin="round" stroke-linecap="butt" d="m105.55315 76.2874l0 -52.5748l79.30708 26.287401z" fill-rule="nonzero"></path><path fill="#cfe2f3" d="m126.41728 56.10796l0 -24.913385l37.580048 12.456694z" fill-rule="nonzero"></path><path stroke="#000000" stroke-width="2.0" stroke-linejoin="round" stroke-linecap="butt" d="m126.41728 56.10796l0 -24.913385l37.580048 12.456694z" fill-rule="nonzero"></path><path fill="#666666" d="m93.0794 37.54331l12.472435 0l0 24.913383l-12.472435 0z" fill-rule="nonzero"></path><path stroke="#000000" stroke-width="2.0" stroke-linejoin="round" stroke-linecap="butt" d="m93.0794 37.54331l12.472435 0l0 24.913383l-12.472435 0z" fill-rule="nonzero"></path><path fill="#4a86e8" d="m1.0636483 50.0l46.00656 -9.675854l46.006565 9.675854l-46.006565 9.675854z" fill-rule="nonzero"></path><path stroke="#000000" stroke-width="2.0" stroke-linejoin="round" stroke-linecap="butt" d="m1.0636483 50.0l46.00656 -9.675854l46.006565 9.675854l-46.006565 9.675854z" fill-rule="nonzero"></path><path fill="#a4c2f4" d="m29.497257 50.0l30.96785 -6.896324l30.967846 6.896324l-30.967846 6.896324z" fill-rule="nonzero"></path><path stroke="#000000" stroke-width="2.0" stroke-linejoin="round" stroke-linecap="butt" d="m29.497257 50.0l30.96785 -6.896324l30.967846 6.896324l-30.967846 6.896324z" fill-rule="nonzero"></path></g></svg>

